<svg width="32" height="32" viewBox="0 0 32 32" xmlns="http://www.w3.org/2000/svg">
<path fill-rule="evenodd" clip-rule="evenodd" d="M16.0002 0C14.8956 0 14.0002 0.895431 14.0002 2V5.18146C11.7712 5.59098 9.77741 6.67237 8.23641 8.2079L4.87631 6.26795C3.91973 5.71566 2.69655 6.04341 2.14426 7C1.59198 7.95658 1.91973 9.17976 2.87631 9.73205L5.95575 11.51C5.34196 12.881 5.00063 14.4006 5.00063 16C5.00063 16.9782 5.12832 17.9266 5.36793 18.8294L2.87631 20.2679C1.91972 20.8202 1.59198 22.0434 2.14426 23C2.69654 23.9566 3.91972 24.2843 4.87631 23.732L7.09141 22.4532C8.71779 24.6946 11.1694 26.2984 14.0002 26.8185V30C14.0002 31.1046 14.8956 32 16.0002 32C17.1047 32 18.0002 31.1046 18.0002 30V26.8187C20.8314 26.2988 23.2833 24.6949 24.9099 22.4531L27.125 23.732C28.0816 24.2843 29.3048 23.9566 29.8571 23C30.4094 22.0434 30.0816 20.8202 29.125 20.2679L26.6333 18.8294C26.8729 17.9266 27.0006 16.9782 27.0006 16C27.0006 14.4007 26.6593 12.881 26.0455 11.51L29.125 9.73205C30.0816 9.17976 30.4094 7.95658 29.8571 7C29.3048 6.04341 28.0816 5.71566 27.125 6.26795L23.7649 8.20793C22.2237 6.67217 20.2295 5.59068 18.0002 5.18129V2C18.0002 0.895431 17.1047 0 16.0002 0Z"/>
</svg>
