<svg width="32" height="32" viewBox="0 0 32 32" xmlns="http://www.w3.org/2000/svg">
<rect x="4" width="4" height="32"/>
<path d="M27.5 11L6.5 2V19.5L27.5 11Z"/>
<path d="M23.3887 26.6348C23.3887 25.7233 23.4993 24.9974 23.7207 24.457C23.9421 23.9167 24.3457 23.3861 24.9316 22.8652C25.5241 22.3379 25.918 21.9115 26.1133 21.5859C26.3086 21.2539 26.4062 20.9056 26.4062 20.541C26.4062 19.4408 25.8984 18.8906 24.8828 18.8906C24.401 18.8906 24.0137 19.0404 23.7207 19.3398C23.4342 19.6328 23.2845 20.0397 23.2715 20.5605H20.4395C20.4525 19.3171 20.8529 18.3438 21.6406 17.6406C22.4349 16.9375 23.5156 16.5859 24.8828 16.5859C26.263 16.5859 27.334 16.9212 28.0957 17.5918C28.8574 18.2559 29.2383 19.1966 29.2383 20.4141C29.2383 20.9674 29.1146 21.4915 28.8672 21.9863C28.6198 22.4746 28.1868 23.0182 27.5684 23.6172L26.7773 24.3691C26.2826 24.8444 25.9993 25.401 25.9277 26.0391L25.8887 26.6348H23.3887ZM23.1055 29.6328C23.1055 29.1966 23.252 28.8385 23.5449 28.5586C23.8444 28.2721 24.2253 28.1289 24.6875 28.1289C25.1497 28.1289 25.5273 28.2721 25.8203 28.5586C26.1198 28.8385 26.2695 29.1966 26.2695 29.6328C26.2695 30.0625 26.123 30.4173 25.8301 30.6973C25.5436 30.9772 25.1628 31.1172 24.6875 31.1172C24.2122 31.1172 23.8281 30.9772 23.5352 30.6973C23.2487 30.4173 23.1055 30.0625 23.1055 29.6328Z"/>
</svg>
